<?xml version="1.0" encoding="UTF-8"?><svg id="uuid-cb5a9799-b4a9-4c9e-81f5-20fe5b9164a3" xmlns="http://www.w3.org/2000/svg" viewBox="0 0 844 230.61"><g><path d="M197.72,2.6l-10.56,24.88h-33.42l10.56-24.88h33.42Zm-13.63,32.12l-42.63,100.44h-33.42l42.63-100.44h33.42Z"/><path d="M208.81,34.72l12.53-29.52h33.41l-12.53,29.52h13.18l-9.54,22.46h-13.18l-20.33,47.9c-1.21,2.85-1.41,4.86-.61,6.03,.8,1.18,2.56,1.76,5.28,1.76h5.2l-9.46,22.28c-3.1,0-6.23,.09-9.4,.28s-6.18,.28-9.03,.28c-5.08,0-9.31-.22-12.72-.65-3.41-.43-5.89-1.51-7.44-3.25-1.56-1.73-2.14-4.3-1.74-7.7,.39-3.4,1.77-7.89,4.14-13.46l22.7-53.47h-11.14l9.54-22.46h11.14Z"/><path d="M263.03,109.53c-.36,1.73-.35,3.16,.04,4.27,.61,2.35,2.46,3.53,5.56,3.53,2.6,0,5.17-.74,7.72-2.23,2.55-1.49,4.4-3.59,5.55-6.31,1.26-2.97,1.03-5.26-.7-6.87-1.73-1.61-4.13-3.03-7.19-4.27-3.07-1.24-6.38-2.54-9.95-3.9-3.57-1.36-6.65-3.22-9.24-5.57-2.59-2.35-4.26-5.48-5.02-9.38s.2-9,2.88-15.32c1.89-4.46,4.44-8.57,7.65-12.35,3.21-3.77,7.06-7.08,11.55-9.93,4.49-2.85,9.58-5.07,15.28-6.68,5.69-1.61,11.95-2.41,18.75-2.41,25.12,0,33.22,10.52,24.29,31.56h-28.96c1.84-4.33,2.31-7.27,1.42-8.82-.89-1.55-2.76-2.32-5.6-2.32-2.48,0-4.81,.68-6.99,2.04-2.19,1.36-3.81,3.28-4.86,5.75-1.21,2.85-.91,4.98,.9,6.41,1.81,1.42,4.27,2.69,7.39,3.81,3.11,1.11,6.48,2.29,10.1,3.53,3.62,1.24,6.74,3,9.36,5.29,2.61,2.29,4.3,5.38,5.06,9.28,.76,3.9-.23,9.07-2.96,15.5-2.1,4.95-4.95,9.47-8.54,13.55-3.59,4.08-7.72,7.61-12.38,10.58-4.67,2.97-9.82,5.2-15.46,6.68-5.64,1.48-11.62,2.23-17.93,2.23-13.99,0-22.86-2.78-26.62-8.36-3.76-5.57-3.31-13.86,1.37-24.88h29.33c-.84,1.98-1.44,3.84-1.81,5.57Z"/><path d="M368.15,29.98c3.45-5.5,7.55-10.21,12.3-14.11,4.75-3.9,10.35-6.9,16.82-9,6.46-2.1,14.21-3.16,23.25-3.16s15.32,.93,19.98,2.78c4.66,1.86,7.87,4.43,9.63,7.7,1.76,3.28,2.31,7.09,1.65,11.42-.66,4.33-2.05,8.97-4.15,13.92-3.78,8.91-8.45,16.4-13.99,22.46-5.55,6.07-11.85,11.57-18.9,16.52l-28.85,19.86c-2.11,1.49-4.47,3.16-7.05,5.01-2.58,1.86-4.6,3.78-6.06,5.75h45.3l-11.03,25.99h-86.51c3.94-9.28,9.05-18.04,15.33-26.27,6.28-8.23,14.85-16.24,25.71-24.04l32.95-23.39c4.76-3.34,8.49-6.53,11.2-9.56,2.71-3.03,5.12-7.02,7.22-11.97,2.36-5.57,3.18-9.4,2.47-11.51-.72-2.1-2.44-3.16-5.16-3.16-1.24,0-2.5,.22-3.8,.65-1.3,.43-2.68,1.27-4.13,2.51-1.45,1.24-2.94,3-4.47,5.29-1.53,2.29-3.08,5.29-4.66,9l-2.36,5.57h-32.3c2.96-6.68,6.16-12.78,9.62-18.29Z"/><path d="M556.33,66.11l-30.58,69.05h-23.39l4.22-11.7h-.37c-2.32,2.85-4.9,5.2-7.73,7.05-2.83,1.86-5.71,3.25-8.64,4.18-2.93,.93-5.93,1.58-8.99,1.95-3.07,.37-6.09,.56-9.05,.56-8.79,0-15.1-1.46-18.94-4.36-3.84-2.91-5.83-7.27-5.96-13.09-.13-5.82,1.27-13,4.22-21.54,2.94-8.54,6.75-18.32,11.43-29.33,4.73-11.14,9.55-20.98,14.48-29.52,4.93-8.54,10.44-15.72,16.57-21.54,6.12-5.82,13.04-10.24,20.76-13.27,7.72-3.03,16.66-4.55,26.81-4.55,6.06,0,11.32,.81,15.78,2.41,4.45,1.61,7.77,4.21,9.97,7.8,2.19,3.59,3.14,8.2,2.85,13.83-.29,5.63-2.14,12.47-5.55,20.51h-33.41c2.99-7.05,4.55-12.19,4.68-15.41,.39-3.83-1.46-5.76-5.54-5.76-2.85,0-5.4,.68-7.64,2.04-2.25,1.36-4.51,3.78-6.79,7.24-2.28,3.47-4.79,8.14-7.53,14.02-2.75,5.88-6.01,13.27-9.79,22.18-3.78,8.91-6.8,16.31-9.04,22.18-2.25,5.88-3.71,10.55-4.37,14.02-.67,3.47-.52,5.88,.45,7.24,.97,1.36,2.75,2.04,5.35,2.04,1.86,0,3.65-.37,5.39-1.11,1.74-.74,3.53-2.14,5.39-4.18,1.86-2.04,3.84-4.89,5.95-8.54,2.11-3.65,6.03-14.11,8.45-19.81l-7.94-14.62h48.51Z"/><path d="M579.95,37.22c5.31-8.73,11-15.84,17.05-21.35,6.05-5.5,12.65-9.53,19.79-12.07,7.14-2.54,15.1-3.81,23.89-3.81s15.67,1.27,20.66,3.81c4.98,2.54,8.17,6.56,9.54,12.07,1.37,5.51,1.02,12.62-1.08,21.35-2.1,8.73-5.77,19.28-11.02,31.65-5.25,12.38-10.54,22.93-15.85,31.65-5.31,8.73-11,15.84-17.05,21.35-6.05,5.51-12.61,9.44-19.67,11.79-7.06,2.35-14.99,3.53-23.78,3.53s-15.71-1.18-20.78-3.53c-5.07-2.35-8.29-6.28-9.66-11.79-1.38-5.5-1.02-12.62,1.08-21.35,2.09-8.73,5.77-19.28,11.02-31.65,5.25-12.37,10.54-22.93,15.85-31.65Zm10.75,53.84c-2.25,5.88-3.71,10.55-4.37,14.02-.67,3.47-.52,5.88,.45,7.24,.97,1.36,2.75,2.04,5.35,2.04s4.96-.68,7.09-2.04c2.13-1.36,4.33-3.77,6.6-7.24,2.28-3.46,4.78-8.14,7.53-14.02,2.74-5.88,6.01-13.27,9.79-22.18,3.78-8.91,6.8-16.3,9.04-22.18,2.25-5.88,3.71-10.55,4.37-14.02,.67-3.46,.52-5.88-.45-7.24-.97-1.36-2.75-2.04-5.35-2.04s-4.96,.68-7.09,2.04c-2.13,1.36-4.33,3.78-6.6,7.24-2.28,3.47-4.79,8.14-7.53,14.02-2.75,5.88-6.01,13.27-9.79,22.18-3.78,8.91-6.8,16.31-9.04,22.18Z"/><path d="M132.11,14.39c-1.61-3.65-4.38-6.53-8.31-8.63-3.93-2.1-9.18-3.16-15.74-3.16H56.27L0,135.15H34.53l21.43-50.5h12.07c14.23,0,26.49-3.43,36.77-10.3,10.28-6.87,18.34-17.17,24.17-30.91,2.47-5.82,4.01-11.2,4.63-16.15,.62-4.95,.12-9.25-1.48-12.9Zm-38.87,29.24c-2.36,5.57-5.24,9.65-8.64,12.25-3.4,2.6-7.26,3.9-11.59,3.9h-6.5l13.71-32.3h6.5c8.91,0,11.08,5.38,6.51,16.15Z"/><polyline points="30.9 2.6 54.76 10.86 58.27 2.6"/><polygon points="142.15 2.6 166.02 2.6 162.96 10.86 142.15 2.6"/><polygon points="201.93 5.2 225.79 5.2 222.74 13.46 201.93 5.2"/><polygon points="607.08 66.5 630.95 66.5 627.89 74.76 607.08 66.5"/><g><path d="M662.53,115.2l-7.79,18.35h-15.57l7.79-18.35h15.57Z"/><path d="M704.37,97.07c.35-1.26,.51-2.3,.48-3.1-.08-1.42-1.01-2.13-2.8-2.13-.93,0-1.81,.23-2.66,.7-.85,.46-1.71,1.3-2.59,2.5s-1.83,2.81-2.83,4.82c-1.01,2.01-2.17,4.56-3.48,7.65-1.31,3.09-2.32,5.64-3.01,7.64-.7,2.01-1.11,3.6-1.24,4.78s.03,1.99,.49,2.46c.45,.46,1.14,.7,2.07,.7,1.54,0,2.99-.59,4.32-1.76s2.67-3.34,4.01-6.49l1.38-3.25h15.02c-1.68,3.95-3.45,7.32-5.31,10.1-1.86,2.78-3.98,5.07-6.34,6.86-4.57,3.34-10.41,5.01-17.51,5.01-3.21,0-6.03-.28-8.45-.84s-4.19-1.75-5.3-3.57c-1.11-1.82-1.49-4.39-1.13-7.69,.35-3.3,1.68-7.68,3.99-13.12,2.52-5.93,5.13-10.69,7.82-14.27,2.69-3.58,5.45-6.33,8.27-8.25,2.82-1.91,5.72-3.18,8.7-3.8,2.98-.62,6.05-.93,9.2-.93,3.71,0,6.56,.51,8.58,1.53,2.01,1.02,3.35,2.44,4.03,4.26,.68,1.82,.77,4.02,.27,6.58-.5,2.56-1.42,5.42-2.76,8.57h-15.02c.87-2.04,1.47-3.69,1.83-4.96Z"/><path d="M758.55,117.14c-1.8,3.15-3.96,5.95-6.48,8.39-2.52,2.44-5.5,4.39-8.92,5.84-3.43,1.45-7.49,2.18-12.19,2.18s-8.47-.67-10.74-2c-2.28-1.33-3.63-3.18-4.03-5.56-.42-2.38-.15-5.16,.8-8.34,.95-3.18,2.2-6.6,3.74-10.24,1.39-3.28,2.99-6.49,4.79-9.64,1.8-3.15,3.97-5.96,6.5-8.43,2.53-2.47,5.52-4.46,8.98-5.98,3.45-1.51,7.53-2.27,12.23-2.27s8.45,.7,10.7,2.09,3.58,3.29,3.98,5.7c.4,2.41,.12,5.21-.83,8.39-.95,3.18-2.2,6.6-3.75,10.24-1.39,3.27-2.99,6.49-4.79,9.64Zm-24.27-1.9c-.73,2.01-1.16,3.6-1.29,4.77-.13,1.18,0,1.98,.42,2.41,.4,.43,1.07,.65,1.99,.65s1.79-.22,2.59-.65c.8-.43,1.62-1.24,2.46-2.41,.84-1.17,1.75-2.76,2.72-4.77,.97-2.01,2.13-4.59,3.47-7.74,1.34-3.15,2.38-5.75,3.12-7.79,.74-2.04,1.19-3.64,1.35-4.82,.16-1.17,.02-1.98-.41-2.41-.44-.43-1.12-.65-2.04-.65s-1.78,.22-2.55,.65c-.77,.44-1.59,1.24-2.46,2.41-.87,1.17-1.8,2.78-2.79,4.82-.99,2.04-2.15,4.64-3.49,7.79s-2.37,5.73-3.1,7.74Z"/><path d="M799.65,95.92c-.23-.93-1.08-1.39-2.56-1.39s-2.73,.46-3.74,1.39c-1.01,.93-1.96,2.44-2.85,4.54l-14.05,33.09h-16.68l21.28-50.15h16.13l-2.6,6.12h.18c4.26-4.94,9.36-7.42,15.29-7.42,3.46,0,5.83,.64,7.12,1.9,1.29,1.27,1.9,3.2,1.85,5.79,2.5-2.84,5.13-4.83,7.87-5.98,2.74-1.14,5.41-1.71,8-1.71,1.85,0,3.48,.2,4.89,.6s2.47,1.13,3.2,2.18c.73,1.05,1.06,2.44,1.01,4.17-.06,1.73-.66,3.96-1.81,6.67l-16.05,37.82h-16.68l14.05-33.09c.89-2.1,1.23-3.61,1-4.54-.22-.93-1.08-1.39-2.56-1.39s-2.73,.46-3.74,1.39c-1.01,.93-1.96,2.44-2.85,4.54l-14.05,33.09h-16.68l14.05-33.09c.89-2.1,1.23-3.61,1-4.54Z"/></g></g><rect x=".02" y="193.1" width="357.5" height="15"/><path d="M428.89,173.35c-.05,3.24,.69,6.77-.37,9.62-1.06,2.87-3.89,5.11-5.97,7.61-7.84,9.48-15.7,18.94-23.54,28.42-.32,.39-.6,.79-1.15,1.52h30.92v10.1h-47.5v-9.55c10.33-12.42,20.63-24.83,31.26-37.62h-28.98c-.76,0-1.52-.11-2.27-.16v-9.94h47.61Z"/><path d="M684.22,173.35c5.04,13.73,10.1,27.47,15.14,41.2,1.92,5.25,3.88,10.48,5.9,16-4.16,0-8.09,.04-12.02-.07-.41,0-.99-.83-1.16-1.39-1.16-3.77-2.27-7.56-3.31-11.36-.35-1.29-.83-1.87-2.33-1.85-5.96,.11-11.89,.07-17.85,0-1.27,0-1.78,.42-2.11,1.6-1.25,4.33-2.59,8.63-3.91,12.97h-12.39c7.15-19.1,14.25-38.09,21.37-57.09h12.67Zm-6.27,13.8h-.44c-2.4,6.55-4.79,13.13-7.21,19.73h14.66c-2.38-6.71-4.69-13.23-7-19.73h-.02Z"/><path d="M583.63,173.35c4.65,12.65,9.29,25.3,13.94,37.95,2.33,6.33,4.67,12.63,7.05,19.12h-12.77c-1.07-3.7-2.15-7.54-3.33-11.35s-.12-3.14-4.32-3.17c-5.37-.05-10.75,.04-16.12-.05-1.36-.02-1.87,.46-2.22,1.69-1.07,3.86-2.33,7.66-3.44,11.52-.3,1.06-.72,1.53-1.96,1.5-3.51-.11-7.03-.04-10.68-.04,.04-.35,0-.65,.11-.92,7.03-18.75,14.04-37.5,21.07-56.26h12.67Zm.72,33.6c-2.4-6.75-4.72-13.3-7.05-19.88-.14,0-.28,.04-.42,.05-2.4,6.55-4.79,13.13-7.24,19.82h14.71Z"/><path d="M471.51,173.35c.42,1.37,.79,2.78,1.29,4.14,6.26,17,12.55,34.01,18.82,51.01,.21,.58,.41,1.18,.65,1.92h-12.7c-1.15-3.88-2.45-7.86-3.42-11.91-.51-2.15-1.46-2.75-3.65-2.68-5.55,.18-11.12,.11-16.69,.02-1.36-.02-1.89,.46-2.26,1.69-1.23,4.33-2.59,8.63-3.88,12.92h-12.37c1.02-2.73,1.97-5.34,2.94-7.95,5.92-15.84,11.84-31.7,17.74-47.54,.19-.53,.3-1.09,.44-1.64h13.06l.02,.02Zm-6.45,13.8c-.14-.04-.3-.05-.44-.09-2.4,6.57-4.81,13.14-7.24,19.8h14.66c-2.38-6.71-4.69-13.21-6.98-19.73v.02Z"/><path d="M529.09,173.35c.86,.18,1.73,.37,2.61,.55,9,1.81,14.15,8.33,13.92,17.6-.21,9-5.83,15.51-14.87,16.55-4.79,.55-9.69,.3-14.55,.41-.95,.02-1.9,0-3.12,0v21.99h-12.4v-57.09h28.42Zm-15.96,9.64v16.25c3.24,0,6.36,.04,9.48,0,1.46-.02,2.94-.12,4.39-.35,4.39-.7,6.71-3.49,6.73-7.89,0-4.42-2.26-7.49-6.66-7.89-4.55-.41-9.16-.09-13.94-.09v-.02Z"/><path d="M650.42,173.35v10.11h-16.84v46.97h-12.26v-46.92h-16.97v-10.17h46.08Z"/><path d="M775.98,173.35c-5.18,18.62-10.38,37.25-15.54,55.89-.25,.92-.6,1.36-1.67,1.34-4.92-.07-9.85-.04-15.1-.04,5.29-19.15,10.55-38.18,15.81-57.19h16.51Z"/><path d="M842.02,173.35c-5.11,18.25-10.25,36.49-15.28,54.76-.55,1.99-1.34,2.55-3.35,2.47-4.48-.16-8.95-.05-13.62-.05,.12-.63,.19-1.16,.33-1.67,5-18.15,10.01-36.3,15.01-54.45,.11-.37,.26-.7,.39-1.07h16.51v.02Z"/><path d="M809,173.35c-5.15,18.38-10.31,36.74-15.38,55.13-.46,1.67-1.15,2.15-2.85,2.11-4.6-.14-9.2-.05-13.97-.05,.09-.56,.14-1.04,.26-1.48,5.04-18.27,10.08-36.54,15.12-54.82,.09-.3,.21-.6,.32-.9,5.5,0,11.01,0,16.51,0Z"/></svg>